<?xml version="1.0" encoding="UTF-8" standalone="no"?>
<!-- Created with Inkscape (http://www.inkscape.org/) -->

<svg
   width="60mm"
   height="20mm"
   viewBox="0 0 60 20"
   version="1.1"
   id="svg1"
   inkscape:version="1.3.2 (091e20ef0f, 2023-11-25, custom)"
   sodipodi:docname="logo.svg"
   xmlns:inkscape="http://www.inkscape.org/namespaces/inkscape"
   xmlns:sodipodi="http://sodipodi.sourceforge.net/DTD/sodipodi-0.dtd"
   xmlns:xlink="http://www.w3.org/1999/xlink"
   xmlns="http://www.w3.org/2000/svg"
   xmlns:svg="http://www.w3.org/2000/svg">
  <sodipodi:namedview
     id="namedview1"
     pagecolor="#ffffff"
     bordercolor="#111111"
     borderopacity="1"
     inkscape:showpageshadow="0"
     inkscape:pageopacity="0"
     inkscape:pagecheckerboard="1"
     inkscape:deskcolor="#d1d1d1"
     inkscape:document-units="mm"
     inkscape:zoom="4.4328844"
     inkscape:cx="95.084817"
     inkscape:cy="50.982607"
     inkscape:window-width="2560"
     inkscape:window-height="1416"
     inkscape:window-x="0"
     inkscape:window-y="0"
     inkscape:window-maximized="1"
     inkscape:current-layer="g148" />
  <defs
     id="defs1">
    <linearGradient
       id="linearGradient141"
       inkscape:collect="always">
      <stop
         style="stop-color:#7f7f7f;stop-opacity:1;"
         offset="0"
         id="stop141" />
      <stop
         style="stop-color:#3d3d3d;stop-opacity:1;"
         offset="1"
         id="stop142" />
    </linearGradient>
    <rect
       x="115.726"
       y="62.261944"
       width="234.61021"
       height="26.39365"
       id="rect29" />
    <rect
       x="122.49361"
       y="72.864517"
       width="188.81612"
       height="53.012886"
       id="rect28" />
    <inkscape:perspective
       sodipodi:type="inkscape:persp3d"
       inkscape:vp_x="-14.62212 : -1.7906932e-15 : 0"
       inkscape:vp_y="1.6195152e-14 : -264.48689 : 0"
       inkscape:vp_z="-6.4765989 : -3.3213781 : 0"
       inkscape:persp3d-origin="63.73931 : 24.961069 : 1"
       id="perspective28" />
    <inkscape:perspective
       sodipodi:type="inkscape:persp3d"
       inkscape:vp_x="29.538588 : 14.935289 : 1"
       inkscape:vp_y="0 : 999.99998 : 0"
       inkscape:vp_z="52.905006 : 18.516479 : 1"
       inkscape:persp3d-origin="51.704523 : -13.333333 : 1"
       id="perspective7" />
    <linearGradient
       inkscape:collect="always"
       xlink:href="#linearGradient141"
       id="linearGradient142"
       x1="66.898354"
       y1="24.609226"
       x2="73.168076"
       y2="21.266783"
       gradientUnits="userSpaceOnUse" />
    <linearGradient
       inkscape:collect="always"
       xlink:href="#linearGradient141"
       id="linearGradient143"
       gradientUnits="userSpaceOnUse"
       x1="66.898354"
       y1="24.609226"
       x2="73.168076"
       y2="21.266783"
       gradientTransform="translate(-85.091711,-27.081949)" />
    <linearGradient
       inkscape:collect="always"
       xlink:href="#linearGradient141"
       id="linearGradient144"
       gradientUnits="userSpaceOnUse"
       x1="66.898354"
       y1="24.609226"
       x2="73.168076"
       y2="21.266783"
       gradientTransform="translate(-85.091711,-27.081949)" />
    <linearGradient
       inkscape:collect="always"
       xlink:href="#linearGradient141"
       id="linearGradient145"
       gradientUnits="userSpaceOnUse"
       x1="66.898354"
       y1="24.609226"
       x2="73.168076"
       y2="21.266783"
       gradientTransform="translate(-85.091711,-27.081949)" />
    <linearGradient
       inkscape:collect="always"
       xlink:href="#linearGradient141"
       id="linearGradient146"
       gradientUnits="userSpaceOnUse"
       x1="66.898354"
       y1="24.609226"
       x2="73.168076"
       y2="21.266783"
       gradientTransform="translate(-85.091711,-27.081949)" />
    <linearGradient
       inkscape:collect="always"
       xlink:href="#linearGradient141"
       id="linearGradient147"
       gradientUnits="userSpaceOnUse"
       x1="66.898354"
       y1="24.609226"
       x2="73.168076"
       y2="21.266783"
       gradientTransform="translate(-85.091711,-27.081949)" />
    <linearGradient
       inkscape:collect="always"
       xlink:href="#linearGradient141"
       id="linearGradient148"
       gradientUnits="userSpaceOnUse"
       x1="66.898354"
       y1="24.609226"
       x2="73.168076"
       y2="21.266783"
       gradientTransform="translate(-85.091711,-27.081949)" />
  </defs>
  <g
     id="g148"
     transform="translate(0,0.38311459)"
     inkscape:label="Logo">
    <g
       id="text28"
       style="font-size:18.6667px;line-height:1.25;white-space:pre"
       inkscape:label="Text"
       transform="matrix(0.26458333,0,0,0.26458333,-28.187311,-8.6012927)"
       aria-label="rebind::inspect&lt;    &gt;">
      <path
         style="fill:#7d5fff"
         d="m 121.97991,69.305026 q 0.28,0 0.59733,0.03733 0.336,0.01867 0.57867,0.07467 l -0.20533,1.512003 q -0.24267,-0.056 -0.54134,-0.09333 -0.28,-0.03733 -0.54133,-0.03733 -0.76534,0 -1.43734,0.429334 -0.672,0.410667 -1.08267,1.176002 -0.392,0.746668 -0.392,1.75467 v 5.338676 h -1.64267 V 69.491693 h 1.344 l 0.18667,1.829336 h 0.0747 q 0.48533,-0.821335 1.25067,-1.418669 0.76533,-0.597334 1.81067,-0.597334 z m 6.53334,0 q 1.288,0 2.20267,0.560001 0.93333,0.560001 1.41867,1.586669 0.504,1.008002 0.504,2.370671 v 0.989335 h -6.85068 q 0.0373,1.69867 0.85867,2.594672 0.84,0.877334 2.33333,0.877334 0.952,0 1.68001,-0.168 0.74666,-0.186667 1.53067,-0.522667 v 1.437335 q -0.76534,0.336001 -1.51201,0.485335 -0.74667,0.168 -1.77333,0.168 -1.41867,0 -2.52001,-0.578668 -1.08267,-0.578667 -1.69867,-1.717336 -0.59733,-1.157336 -0.59733,-2.818672 0,-1.64267 0.54133,-2.818672 0.56,-1.176002 1.54934,-1.81067 1.008,-0.634667 2.33334,-0.634667 z m -0.0187,1.344002 q -1.176,0 -1.86667,0.765335 -0.672,0.746668 -0.80267,2.09067 h 5.09601 q -0.0187,-1.269335 -0.59733,-2.053337 -0.57867,-0.802668 -1.82934,-0.802668 z m 8.32533,-1.885337 q 0,0.634668 -0.0373,1.194669 -0.0187,0.541334 -0.056,0.858668 h 0.0933 q 0.42934,-0.634668 1.176,-1.064002 0.74667,-0.429334 1.92267,-0.429334 1.86667,0 2.98668,1.306669 1.13866,1.288003 1.13866,3.864007 0,2.576005 -1.13866,3.882674 -1.13867,1.306669 -2.98668,1.306669 -1.176,0 -1.92267,-0.429334 -0.74666,-0.429334 -1.176,-1.026669 h -0.13067 l -0.336,1.269336 h -1.176 V 65.310352 h 1.64267 z m 2.81867,1.92267 q -1.58667,0 -2.20267,0.914669 -0.616,0.914668 -0.616,2.837338 v 0.07467 q 0,1.848003 0.59734,2.837338 0.616,0.970669 2.25867,0.970669 1.344,0 1.99733,-0.989335 0.672,-0.989335 0.672,-2.856005 0,-3.789341 -2.70667,-3.789341 z m 7.85868,-4.946675 q 0.37333,0 0.65333,0.261334 0.29867,0.242667 0.29867,0.784001 0,0.522668 -0.29867,0.784001 -0.28,0.261334 -0.65333,0.261334 -0.41067,0 -0.69067,-0.261334 -0.28,-0.261333 -0.28,-0.784001 0,-0.541334 0.28,-0.784001 0.28,-0.261334 0.69067,-0.261334 z m 0.80267,3.752007 v 10.005351 h -1.64267 V 69.491693 Z m 7.98934,-0.186667 q 1.792,0 2.70667,0.877334 0.91467,0.858669 0.91467,2.800006 v 6.514678 h -1.62401 v -6.402678 q 0,-2.408005 -2.24,-2.408005 -1.66134,0 -2.296,0.933335 -0.63467,0.933335 -0.63467,2.688005 v 5.189343 h -1.64267 V 69.491693 h 1.32533 l 0.24267,1.362669 h 0.0933 q 0.48534,-0.784002 1.34401,-1.157336 0.85867,-0.392 1.81067,-0.392 z m 10.26668,10.378685 q -1.86667,0 -2.98667,-1.288002 -1.12,-1.306669 -1.12,-3.882674 0,-2.576005 1.12,-3.882674 1.13867,-1.325335 3.00534,-1.325335 1.15733,0 1.88533,0.429334 0.74667,0.429334 1.21334,1.045335 h 0.112 q -0.0187,-0.242667 -0.0747,-0.709335 -0.0373,-0.485334 -0.0373,-0.765334 v -3.994674 h 1.64267 v 14.186692 h -1.32534 l -0.24266,-1.344002 h -0.0747 q -0.448,0.634667 -1.19467,1.082668 -0.74667,0.448001 -1.92267,0.448001 z m 0.26133,-1.362669 q 1.58667,0 2.22134,-0.858668 0.65334,-0.877335 0.65334,-2.632005 v -0.298667 q 0,-1.86667 -0.61601,-2.856005 -0.616,-1.008002 -2.27733,-1.008002 -1.32534,0 -1.99734,1.064002 -0.65333,1.045335 -0.65333,2.818671 0,1.792004 0.65333,2.781339 0.672,0.989335 2.016,0.989335 z"
         id="path7" />
      <path
         style="font-family:'Cascadia Mono';-inkscape-font-specification:'Cascadia Mono'"
         d="m 178.37139,72.351198 q -0.55599,0 -0.95704,-0.391928 -0.39192,-0.401042 -0.39192,-0.957033 0,-0.565105 0.39192,-0.957033 0.40105,-0.391928 0.95704,-0.391928 0.5651,0 0.95703,0.391928 0.39193,0.391928 0.39193,0.957033 0,0.555991 -0.39193,0.957033 -0.39193,0.391928 -0.95703,0.391928 z m 0,7.328138 q -0.55599,0 -0.95704,-0.391928 -0.39192,-0.401042 -0.39192,-0.957033 0,-0.565105 0.39192,-0.957033 0.40105,-0.391928 0.95704,-0.391928 0.5651,0 0.95703,0.391928 0.39193,0.391928 0.39193,0.957033 0,0.555991 -0.39193,0.957033 -0.39193,0.391928 -0.95703,0.391928 z m 10.93752,-7.328138 q -0.55599,0 -0.95703,-0.391928 -0.39193,-0.401042 -0.39193,-0.957033 0,-0.565105 0.39193,-0.957033 0.40104,-0.391928 0.95703,-0.391928 0.5651,0 0.95703,0.391928 0.39193,0.391928 0.39193,0.957033 0,0.555991 -0.39193,0.957033 -0.39193,0.391928 -0.95703,0.391928 z m 0,7.328138 q -0.55599,0 -0.95703,-0.391928 -0.39193,-0.401042 -0.39193,-0.957033 0,-0.565105 0.39193,-0.957033 0.40104,-0.391928 0.95703,-0.391928 0.5651,0 0.95703,0.391928 0.39193,0.391928 0.39193,0.957033 0,0.555991 -0.39193,0.957033 -0.39193,0.391928 -0.95703,0.391928 z"
         id="path8" />
      <path
         style="fill:#c56cf0"
         d="m 197.20434,65.739686 q 0.37333,0 0.65333,0.261334 0.29867,0.242667 0.29867,0.784001 0,0.522668 -0.29867,0.784001 -0.28,0.261334 -0.65333,0.261334 -0.41067,0 -0.69067,-0.261334 -0.28,-0.261333 -0.28,-0.784001 0,-0.541334 0.28,-0.784001 0.28,-0.261334 0.69067,-0.261334 z m 0.80266,3.752007 v 10.005351 h -1.64267 V 69.491693 Z m 7.98934,-0.186667 q 1.79201,0 2.70668,0.877334 0.91466,0.858669 0.91466,2.800006 v 6.514678 h -1.624 v -6.402678 q 0,-2.408005 -2.24,-2.408005 -1.66134,0 -2.29601,0.933335 -0.63466,0.933335 -0.63466,2.688005 v 5.189343 h -1.64267 V 69.491693 h 1.32533 l 0.24267,1.362669 h 0.0933 q 0.48534,-0.784002 1.344,-1.157336 0.85867,-0.392 1.81067,-0.392 z m 13.23469,7.429346 q 0,1.456003 -1.08267,2.202671 -1.08266,0.746668 -2.912,0.746668 -1.04534,0 -1.81067,-0.168 -0.74667,-0.168001 -1.32534,-0.466668 v -1.493336 q 0.59734,0.298667 1.43734,0.560001 0.85867,0.242667 1.736,0.242667 1.25067,0 1.81067,-0.392 0.56,-0.410668 0.56,-1.082669 0,-0.373334 -0.20533,-0.672001 -0.20533,-0.298667 -0.74667,-0.597335 -0.52267,-0.298667 -1.512,-0.672001 -0.97067,-0.373334 -1.66134,-0.746668 -0.69067,-0.373334 -1.064,-0.896002 -0.37333,-0.522667 -0.37333,-1.344002 0,-1.269336 1.02666,-1.960004 1.04534,-0.690667 2.72534,-0.690667 0.91467,0 1.69867,0.186667 0.80267,0.168 1.49334,0.485334 l -0.56,1.306669 q -0.63467,-0.261334 -1.32534,-0.448001 -0.69067,-0.186667 -1.41867,-0.186667 -1.008,0 -1.54933,0.336001 -0.52267,0.317334 -0.52267,0.877335 0,0.410667 0.24267,0.709334 0.24266,0.280001 0.80266,0.560001 0.57867,0.261334 1.53067,0.634668 0.95201,0.354667 1.62401,0.728001 0.672,0.373334 1.02667,0.914669 0.35466,0.522667 0.35466,1.325335 z m 7.18669,-7.429346 q 1.848,0 2.968,1.288002 1.13867,1.288002 1.13867,3.882674 0,2.557338 -1.13867,3.882673 -1.12,1.325336 -2.98667,1.325336 -1.15734,0 -1.92267,-0.429334 -0.74667,-0.448001 -1.176,-1.026669 h -0.112 q 0.0373,0.317334 0.0747,0.802668 0.0373,0.485335 0.0373,0.840002 v 4.106674 h -1.64267 V 69.491693 h 1.344 l 0.224,1.362669 h 0.0747 q 0.448,-0.653335 1.176,-1.101336 0.728,-0.448 1.94134,-0.448 z m -0.29867,1.381335 q -1.53067,0 -2.16534,0.858669 -0.616,0.858668 -0.65333,2.613338 v 0.317334 q 0,1.848003 0.59733,2.856005 0.616,0.989335 2.25867,0.989335 0.91467,0 1.49334,-0.504001 0.59733,-0.504001 0.87733,-1.362669 0.29867,-0.877335 0.29867,-1.997337 0,-1.717337 -0.672,-2.744005 -0.65334,-1.026669 -2.03467,-1.026669 z m 10.88268,-1.381335 q 1.288,0 2.20267,0.560001 0.93334,0.560001 1.41867,1.586669 0.504,1.008002 0.504,2.370671 v 0.989335 h -6.85068 q 0.0373,1.69867 0.85867,2.594672 0.84,0.877334 2.33334,0.877334 0.952,0 1.68,-0.168 0.74667,-0.186667 1.53067,-0.522667 v 1.437335 q -0.76533,0.336001 -1.512,0.485335 -0.74667,0.168 -1.77334,0.168 -1.41867,0 -2.52,-0.578668 -1.08267,-0.578667 -1.69867,-1.717336 -0.59734,-1.157336 -0.59734,-2.818672 0,-1.64267 0.54134,-2.818672 0.56,-1.176002 1.54933,-1.81067 1.00801,-0.634667 2.33334,-0.634667 z m -0.0187,1.344002 q -1.17601,0 -1.86667,0.765335 -0.67201,0.746668 -0.80267,2.09067 h 5.09601 q -0.0187,-1.269335 -0.59734,-2.053337 -0.57867,-0.802668 -1.82933,-0.802668 z m 10.696,9.034683 q -1.32534,0 -2.37068,-0.541334 -1.02666,-0.541335 -1.624,-1.680003 -0.57867,-1.138669 -0.57867,-2.912006 0,-1.848003 0.61601,-3.005338 0.616,-1.157336 1.66133,-1.69867 1.064,-0.541334 2.40801,-0.541334 0.76533,0 1.47467,0.168 0.70933,0.149333 1.15733,0.373334 l -0.504,1.362669 q -0.448,-0.168 -1.04534,-0.317334 -0.59733,-0.149333 -1.12,-0.149333 -2.94934,0 -2.94934,3.78934 0,1.81067 0.70934,2.781338 0.728,0.952002 2.14667,0.952002 0.82133,0 1.43734,-0.168001 0.63466,-0.168 1.15733,-0.410667 v 1.456003 q -0.504,0.261333 -1.12,0.392 -0.59734,0.149334 -1.456,0.149334 z m 8.288,-1.344002 q 0.37334,0 0.76534,-0.056 0.392,-0.07467 0.63466,-0.149333 v 1.250669 q -0.26133,0.130667 -0.74666,0.205333 -0.48534,0.09333 -0.93334,0.09333 -0.784,0 -1.456,-0.261334 -0.65334,-0.28 -1.064,-0.952002 -0.41067,-0.672001 -0.41067,-1.885336 v -5.824011 h -1.41867 v -0.784001 l 1.43734,-0.653335 0.65333,-2.128004 h 0.97067 v 2.296005 h 2.89334 v 1.269335 h -2.89334 v 5.786677 q 0,0.914669 0.42933,1.362669 0.448,0.429335 1.13867,0.429335 z"
         id="path9" />
      <path
         style="font-family:'Cascadia Mono';-inkscape-font-specification:'Cascadia Mono'"
         d="m 267.38453,77.54652 -8.73179,-3.591153 v -1.841149 l 8.73179,-3.591152 v 2.005212 l -6.74481,2.424483 v 0.164063 l 6.74481,2.424484 z m 46.41155,0 v -2.005212 l 6.38022,-2.424484 v -0.164063 l -6.38022,-2.424483 v -2.005212 l 8.73179,3.591152 v 1.841149 z"
         id="path10" />
    </g>
    <g
       id="g135"
       style="fill:#000000;fill-opacity:0.115727;stroke:url(#linearGradient142);stroke-width:0.5;stroke-linecap:round;stroke-linejoin:round;stroke-miterlimit:0;stroke-dasharray:none;stroke-dashoffset:0"
       inkscape:label="Cube">
      <path
         d="m 46.534705,13.78855 6.807696,0 0,-7.3216646 h -6.807696 z"
         style="fill:#000000;fill-opacity:0.115727;fill-rule:evenodd;stroke:url(#linearGradient143);stroke-width:0.5;stroke-linejoin:round;stroke-dasharray:none;stroke-dashoffset:0;stroke-opacity:1"
         id="path1" />
      <path
         d="M 46.534705,13.78855 V 6.4668854 L 43.991732,7.770992 v 7.321665 z"
         style="fill:#000000;fill-opacity:0.115727;fill-rule:evenodd;stroke:url(#linearGradient144);stroke-width:0.5;stroke-linejoin:round;stroke-dasharray:none;stroke-dashoffset:0;stroke-opacity:1"
         id="path2" />
      <path
         d="m 46.534705,13.78855 6.807696,0 -2.542973,1.304107 -6.807696,0 z"
         style="fill:#000000;fill-opacity:0.115727;fill-rule:evenodd;stroke:url(#linearGradient145);stroke-width:0.5;stroke-linejoin:round;stroke-dasharray:none;stroke-dashoffset:0;stroke-opacity:1"
         id="path3" />
      <path
         d="m 46.534705,6.4668854 h 6.807696 L 50.799428,7.770992 h -6.807696 z"
         style="fill:#000000;fill-opacity:0.115727;fill-rule:evenodd;stroke:url(#linearGradient146);stroke-width:0.5;stroke-linejoin:round;stroke-dasharray:none;stroke-dashoffset:0;stroke-opacity:1"
         id="path4" />
      <path
         d="m 53.342401,13.78855 0,-7.3216646 -2.542973,1.3041066 0,7.321665 z"
         style="fill:#000000;fill-opacity:0.115727;fill-rule:evenodd;stroke:url(#linearGradient147);stroke-width:0.5;stroke-linejoin:round;stroke-dasharray:none;stroke-dashoffset:0;stroke-opacity:1"
         id="path5" />
      <path
         d="m 43.991732,15.092657 6.807696,0 0,-7.321665 h -6.807696 z"
         style="fill:#000000;fill-opacity:0.115727;fill-rule:evenodd;stroke:url(#linearGradient148);stroke-width:0.5;stroke-linejoin:round;stroke-dasharray:none;stroke-dashoffset:0;stroke-opacity:1"
         id="path6" />
    </g>
  </g>
</svg>
